<svg width="40" height="40" viewBox="0 0 40 40" fill="none" xmlns="http://www.w3.org/2000/svg">
<g clip-path="url(#clip0_327_1422)">
<path d="M40 2.5C40 11.375 33.3906 18.7109 24.8281 19.8438C24.2734 15.6719 22.4375 11.9062 19.7266 8.96094C22.7188 3.61719 28.4375 0 35 0H37.5C38.8828 0 40 1.11719 40 2.5ZM0 7.5C0 6.11719 1.11719 5 2.5 5H5C14.6641 5 22.5 12.8359 22.5 22.5V37.5C22.5 38.8828 21.3828 40 20 40C18.6172 40 17.5 38.8828 17.5 37.5V25C7.83594 25 0 17.1641 0 7.5Z" fill="#81E95C"/>
</g>
<defs>
<clipPath id="clip0_327_1422">
<rect width="40" height="40" fill="white"/>
</clipPath>
</defs>
</svg>
